<svg width="32" height="32" viewBox="0 0 32 32" fill="none" xmlns="http://www.w3.org/2000/svg">
  <!-- Logo Mark - Circular background -->
  <circle cx="16" cy="16" r="15" fill="#FF2069"/>
  
  <!-- Stylized B - White outline -->
  <path 
    d="M8 6C8 4.89543 8.89543 4 10 4H22C23.1046 4 24 4.89543 24 6V26C24 27.1046 23.1046 28 22 28H10C8.89543 28 8 27.1046 8 26V6Z" 
    fill="none" 
    stroke="white" 
    stroke-width="2" 
    stroke-linecap="round" 
    stroke-linejoin="round"
  />
  
  <!-- Horizontal line dividing the B -->
  <line 
    x1="10" y1="16" x2="22" y2="16" 
    stroke="white" 
    stroke-width="2" 
    stroke-linecap="round"
  />
  
  <!-- Curved B elements -->
  <path 
    d="M10 6C10 5.44772 10.4477 5 11 5H21C21.5523 5 22 5.44772 22 6V15C22 15.5523 21.5523 16 21 16H11C10.4477 16 10 15.5523 10 15V6Z" 
    fill="none" 
    stroke="white" 
    stroke-width="1.5" 
    stroke-linecap="round"
  />
  
  <path 
    d="M10 17C10 16.4477 10.4477 16 11 16H21C21.5523 16 22 16.4477 22 17V26C22 26.5523 21.5523 27 21 27H11C10.4477 27 10 26.5523 10 26V17Z" 
    fill="none" 
    stroke="white" 
    stroke-width="1.5" 
    stroke-linecap="round"
  />
</svg> 